<?xml version="1.0" encoding="utf-8"?>
<!-- Generator: Adobe Illustrator 16.0.0, SVG Export Plug-In . SVG Version: 6.00 Build 0)  -->
<!DOCTYPE svg PUBLIC "-//W3C//DTD SVG 1.1//EN" "http://www.w3.org/Graphics/SVG/1.1/DTD/svg11.dtd">
<svg version="1.1" id="Layer_1" xmlns="http://www.w3.org/2000/svg" xmlns:xlink="http://www.w3.org/1999/xlink" x="0px" y="0px"
	 width="238.374px" height="28.534px" viewBox="0 0 238.374 28.534" enable-background="new 0 0 238.374 28.534"
	 xml:space="preserve">
<path fill="#FCAF17" d="M36.119,14.606l-0.296-0.186c-0.996-0.994-2.382-1.428-4.242-1.319c-1.545,0.095-2.773,0.709-3.708,1.279
	v-0.043c0-0.485,0.054-1.008,0.108-1.518c0.056-0.519,0.11-1.046,0.11-1.546c0-0.508-0.057-0.99-0.234-1.403
	c-0.043-0.107-0.141-0.171-0.265-0.171c-0.502,0.013-1.475,0.353-1.711,0.562l-0.128,0.282c-0.01,0.552-0.13,2.098-0.254,2.283
	c0.006-0.006-0.066,0.188-0.066,0.188c-0.208,2.205-0.213,4.144-0.021,5.811c0.023,0.165,0.343,0.417,0.591,0.506
	c0.269,0.102,1.118-0.127,1.609-0.313c-0.006,0.004,0.187-0.028,0.187-0.028c0.154-0.016,0.247-0.146,0.237-0.323
	c0-0.004,0.01-0.479,0.01-0.479c0.358-1.437,1.788-3.15,3.478-3.408c0.958-0.151,1.713,0.091,2.311,0.744
	c0.081,0.117,0.256,1.15-0.376,2.341c-0.469,0.878-1.41,1.618-2.643,2.08c-1.169,0.446-2.455,0.628-4.044,0.571
	c-0.064-0.046-1.49-1.005-1.49-1.005c-1.258-0.888-2.822-1.985-4.243-2.526c-0.249-0.093-0.694-0.464-0.964-0.686l-0.144-0.121
	c-0.818-0.658-2.376-1.695-3.628-2.529c0,0-0.567-0.376-0.676-0.451c0.002-0.048,0.004-0.141,0.004-0.141
	c0.035-0.039,0.82-0.512,0.82-0.512c1.102-0.643,1.609-0.958,1.717-1.124c-0.02,0.027,0.146-0.085,0.146-0.085
	c0.009-0.004,2.726-1.543,2.726-1.543c2.62-1.438,5.587-3.07,7.145-4.685c0.002,0,0.077-0.243,0.077-0.243l0.032-0.221
	c0.104-0.345,0.112-0.609,0.025-0.916c-0.025-0.089-0.104-0.189-0.213-0.21c-1.215-0.118-2.786,0.609-4.213,1.948
	c-0.322,0.304-0.595,0.45-0.879,0.607l-0.22,0.122c-1.574,0.895-5.122,3.096-6.978,4.283c0.12-1.996,0.493-4.835,0.944-7.205
	l-0.047-0.281c-0.008-0.01-0.191-0.359-0.191-0.359l-0.147-0.256l-0.042-0.01c-0.369-0.191-0.673-0.112-0.894-0.056l-0.373,0.138
	l-0.491,0.178c-0.102,0.02-0.169,0.081-0.209,0.175c-0.887,2.143-1.628,5.668-1.8,8.49c-1.773-1.13-3.411-1.94-4.213-2.331
	L8.328,8.949L8.233,8.928c-0.287-0.038-0.643-0.25-0.979-0.456C7.222,8.451,6.579,8.035,6.579,8.035L5.55,7.376
	C5.558,7.38,5.277,7.315,5.277,7.315C4.834,7.392,3.988,7.961,3.735,8.35C3.702,8.401,3.688,8.457,3.688,8.518
	c0,0.079,0.024,0.161,0.047,0.239L3.781,8.97l0.049,0.126c0.491,0.506,1.735,1.352,2.959,2.007l1.416,0.75l2.167,1.185
	c0,0.01,0.369,0.293,0.369,0.293l0.254,0.146c0,0,0.029,0.016,0.045,0.029c-0.576,0.383-3.938,2.632-3.938,2.632L5.029,17.51
	c-0.197,0.136-1.015,0.503-1.195,0.571c-0.45,0.186-0.789,0.467-0.932,0.771l-0.056,0.118l0.056,0.079l0.157,0.119
	c-0.004,0,0.213,0.14,0.213,0.14l0.229,0.161c0.004,0,0.217,0.03,0.217,0.03c0.366,0.014,0.905-0.196,1.914-0.636
	c0.923-0.412,3.442-1.929,4.519-2.575l0.458-0.278c0.191,0.017,0.402-0.146,0.585-0.284c0.217-0.172,0.688-0.462,0.974-0.587
	c0.008,0,0.173-0.096,0.324-0.18c0,0.05-0.002,0.123-0.002,0.123c0.047,3.293,0.238,5.687,0.597,7.53l0.006,0.032l0.037,0.073
	c0.176,0.262,0.378,1.041,0.556,1.73l0.409,1.373c0.009,0.016,0.116,0.129,0.116,0.129c0.236,0.157,0.946,0.434,1.423,0.375
	l0.118-0.012l0.077-0.168c0.04-0.208,0.054-0.409,0.054-0.629c0-0.253-0.018-0.531-0.042-0.87l-0.031-0.492
	c-0.15-2.301-0.302-5.618-0.302-7.825c0-0.061,0.002-0.117,0.002-0.174c0.389,0.246,2.098,1.319,2.098,1.319
	c2.906,1.885,7.299,4.738,9.949,5.487c0.14,0.042,0.286,0.01,0.386-0.087c0.004-0.004,0.41-0.261,0.41-0.261l0.074-0.034
	c0.155-0.068,0.256-0.327,0.275-0.605c2.234-0.112,5.357-0.973,7.025-3.073c0.647-0.813,0.936-1.806,0.936-2.661
	C36.664,15.543,36.47,14.939,36.119,14.606"/>
<path fill="#776C61" d="M62.086,5.619h8.052c3.829,0,5.832,1.268,5.832,4.052c0,1.979-1.38,3.342-3.218,3.709v0.07
	c2.636,0.312,3.878,2.04,3.878,3.989c0,2.45-1.789,4.559-6.238,4.559h-8.307V5.619z M64.697,12.518h5.314
	c1.974,0,3.43-0.75,3.43-2.496c0-1.521-0.721-2.54-3.734-2.54h-5.01V12.518z M64.697,20.14h5.149c3.198,0,4.044-1.249,4.044-2.837
	c0-1.885-1.301-2.926-4.183-2.926h-5.01V20.14z"/>
<polygon fill="#776C61" points="44.373,5.619 46.987,5.619 46.987,12.949 55.791,5.619 59.494,5.619 50.191,13.019 60.265,22 
	56.565,22 46.987,13.221 46.987,22 44.373,22 "/>
<path fill="#776C61" d="M91.73,15.6h-5.125V22h-2.591V5.623h7.715c0.755,0,1.488,0.103,2.199,0.293
	c0.668,0.208,1.275,0.501,1.798,0.898c0.502,0.418,0.919,0.922,1.234,1.527c0.291,0.628,0.438,1.38,0.438,2.215v0.108
	c0,0.857-0.147,1.589-0.438,2.194c-0.315,0.627-0.731,1.151-1.234,1.547c-0.522,0.418-1.13,0.711-1.798,0.898
	C93.218,15.515,92.485,15.6,91.73,15.6 M91.73,13.258c0.878,0,1.589-0.211,2.155-0.67c0.546-0.44,0.816-1.086,0.837-1.966
	c0-0.855-0.271-1.527-0.816-1.987c-0.565-0.439-1.298-0.67-2.176-0.67h-5.125v5.294H91.73z"/>
<path fill="#776C61" d="M108.653,15.39l3.955,6.61h-3.056l-3.827-6.4h-3.973V22h-2.595V5.623h7.72c0.753,0,1.485,0.104,2.196,0.293
	c0.669,0.209,1.275,0.502,1.798,0.899c0.503,0.418,0.921,0.919,1.233,1.524c0.296,0.631,0.441,1.382,0.441,2.218
	c0,1.341-0.356,2.405-1.025,3.2C110.808,14.574,109.868,15.119,108.653,15.39 M106.876,7.943h-5.125v5.315h5.125
	c0.877,0,1.591-0.211,2.155-0.649c0.542-0.42,0.836-1.068,0.836-1.991c0-0.854-0.272-1.524-0.816-1.985
	C108.488,8.176,107.754,7.943,106.876,7.943"/>
<path fill="#776C61" d="M126.73,22l-1.479-3.889h-6.968L116.838,22h-2.717l6.274-16.377h2.763L129.515,22H126.73z M121.734,8.571
	l-2.656,7.551h5.372L121.734,8.571z"/>
<path fill="#776C61" d="M136.896,22.188c-1.296,0-2.49-0.252-3.576-0.712c-1.09-0.456-2.01-1.108-2.762-1.901l1.902-1.694
	c0.587,0.604,1.298,1.065,2.131,1.4c0.84,0.354,1.656,0.524,2.49,0.524c2.447,0,3.685-0.775,3.685-2.363
	c0-0.297-0.085-0.589-0.21-0.839c-0.149-0.229-0.379-0.458-0.672-0.668c-0.333-0.208-0.753-0.396-1.253-0.586
	c-0.545-0.169-1.15-0.375-1.841-0.585c-0.962-0.252-1.779-0.502-2.47-0.774c-0.71-0.25-1.295-0.544-1.755-0.922
	c-0.461-0.332-0.815-0.751-1.025-1.254c-0.25-0.479-0.355-1.086-0.355-1.818c0-0.692,0.147-1.319,0.46-1.883
	c0.293-0.546,0.73-1.025,1.275-1.423c0.503-0.376,1.13-0.688,1.862-0.899c0.711-0.209,1.465-0.314,2.282-0.314
	c1.211,0,2.278,0.188,3.219,0.566c0.918,0.396,1.8,0.94,2.593,1.632l-1.883,1.733c-0.566-0.522-1.168-0.919-1.838-1.169
	c-0.67-0.252-1.444-0.376-2.28-0.376c-1.047,0-1.8,0.209-2.262,0.585c-0.501,0.418-0.729,0.878-0.729,1.422
	c0,0.292,0.038,0.543,0.165,0.751c0.105,0.232,0.313,0.441,0.626,0.629c0.294,0.208,0.692,0.398,1.217,0.563
	c0.498,0.188,1.13,0.378,1.862,0.587c0.876,0.25,1.671,0.5,2.381,0.751c0.711,0.294,1.296,0.607,1.798,0.964
	c0.482,0.374,0.86,0.794,1.152,1.294c0.25,0.525,0.396,1.15,0.396,1.863c0,0.752-0.146,1.422-0.396,2.008
	c-0.274,0.604-0.67,1.13-1.194,1.55c-0.563,0.436-1.253,0.752-2.066,1.002C138.986,22.061,138.006,22.188,136.896,22.188"/>
<path fill="#776C61" d="M156.966,22l-1.485-3.891h-6.961L147.074,22h-2.718l6.273-16.377h2.763L159.749,22H156.966z M151.97,8.571
	l-2.655,7.551h5.371L151.97,8.571z"/>
<path fill="#776C61" d="M167.552,22.216c-1.126,0-2.151-0.208-3.049-0.607c-0.918-0.418-1.669-1.001-2.294-1.751
	c-0.65-0.732-1.15-1.61-1.485-2.654c-0.354-1.022-0.521-2.15-0.521-3.405c0-1.23,0.167-2.358,0.521-3.402
	c0.335-1.024,0.835-1.923,1.485-2.675c0.625-0.729,1.376-1.314,2.294-1.733c0.897-0.395,1.923-0.605,3.049-0.605
	c1.423,0,2.634,0.272,3.594,0.773c0.963,0.522,1.733,1.275,2.339,2.277l-2.316,1.357c-0.462-0.667-0.94-1.148-1.461-1.481
	c-0.545-0.313-1.279-0.481-2.155-0.481c-0.749,0-1.419,0.146-2.004,0.417c-0.583,0.293-1.087,0.69-1.459,1.19
	c-0.419,0.544-0.712,1.169-0.899,1.881c-0.21,0.751-0.315,1.566-0.315,2.484c0,0.921,0.105,1.756,0.315,2.485
	c0.188,0.755,0.48,1.378,0.899,1.881c0.372,0.521,0.876,0.918,1.459,1.19c0.585,0.293,1.255,0.418,2.004,0.418
	c0.918,0,1.673-0.17,2.276-0.524c0.585-0.331,1.109-0.834,1.567-1.502l2.153,1.358c-0.63,1.003-1.465,1.773-2.466,2.316
	C170.058,21.945,168.89,22.216,167.552,22.216"/>
<path fill="#776C61" d="M181.627,5.624h7.298c1.926,0,3.324,0.335,4.246,0.981c0.899,0.669,1.355,1.696,1.355,3.074
	c0,0.858-0.205,1.612-0.581,2.258c-0.419,0.67-0.964,1.151-1.675,1.445c0.505,0.145,0.961,0.353,1.34,0.628
	c0.376,0.292,0.666,0.605,0.916,0.96c0.212,0.377,0.38,0.753,0.505,1.173c0.105,0.436,0.17,0.879,0.17,1.295
	c0,0.63-0.107,1.194-0.319,1.737c-0.206,0.563-0.561,1.046-1.021,1.465c-0.48,0.414-1.11,0.749-1.861,1.003
	c-0.774,0.229-1.719,0.355-2.824,0.355h-7.549V5.624z M184.445,12.713h4.351c1.005,0,1.78-0.188,2.369-0.605
	c0.561-0.377,0.855-1.024,0.855-1.905c0-0.375-0.042-0.71-0.125-1.002c-0.087-0.272-0.252-0.502-0.505-0.713
	c-0.25-0.186-0.604-0.334-1.065-0.438c-0.46-0.084-1.065-0.146-1.819-0.146h-4.061V12.713z M184.445,20.095h4.186
	c1.297,0,2.28-0.228,2.909-0.71c0.605-0.458,0.916-1.086,0.916-1.881c0-0.944-0.311-1.614-0.896-2.029
	c-0.609-0.396-1.633-0.605-3.055-0.605h-4.061V20.095z"/>
<path fill="#776C61" d="M204.808,22v-1.215c-0.458,0.42-1.003,0.755-1.608,1.045c-0.627,0.274-1.295,0.42-2.008,0.42
	c-0.542,0-1.067-0.082-1.611-0.21c-0.543-0.165-1.046-0.397-1.461-0.732c-0.463-0.333-0.817-0.748-1.09-1.295
	c-0.295-0.522-0.418-1.173-0.418-1.923c0-0.673,0.123-1.275,0.397-1.778c0.25-0.502,0.626-0.922,1.11-1.257
	c0.46-0.311,1.022-0.563,1.67-0.73c0.628-0.146,1.318-0.229,2.072-0.229c1.189,0,2.174,0.165,2.946,0.459v-0.898
	c0-0.672-0.208-1.193-0.627-1.571c-0.44-0.353-1.065-0.543-1.86-0.543c-0.69,0-1.298,0.064-1.841,0.19
	c-0.541,0.124-1.09,0.333-1.61,0.605l-1.005-1.841c0.63-0.355,1.3-0.625,2.05-0.836c0.715-0.166,1.548-0.271,2.469-0.271
	c0.732,0,1.4,0.083,2.027,0.25c0.588,0.167,1.11,0.419,1.57,0.754c0.42,0.353,0.755,0.793,1.005,1.297
	c0.231,0.544,0.354,1.149,0.354,1.839V22H204.808z M204.808,16.729c-0.373-0.17-0.772-0.295-1.232-0.396
	c-0.482-0.085-1.065-0.149-1.78-0.149c-0.831,0-1.501,0.169-1.983,0.484c-0.504,0.331-0.732,0.791-0.732,1.355
	c0,0.63,0.212,1.11,0.626,1.485c0.419,0.375,1.047,0.567,1.904,0.567c0.335,0,0.67-0.043,1.005-0.149
	c0.313-0.083,0.605-0.188,0.898-0.355c0.252-0.143,0.502-0.313,0.732-0.502c0.21-0.166,0.397-0.355,0.563-0.565V16.729z"/>
<path fill="#776C61" d="M217.823,22v-6.986c0-1.254-0.25-2.134-0.712-2.634c-0.501-0.504-1.171-0.755-2.006-0.755
	c-0.88,0-1.546,0.272-2.01,0.818c-0.48,0.564-0.711,1.335-0.711,2.341V22h-2.572V9.64h2.572v1.169
	c0.335-0.438,0.795-0.793,1.402-1.043c0.586-0.252,1.233-0.378,1.924-0.378c1.527,0,2.699,0.461,3.49,1.38
	c0.799,0.942,1.197,2.322,1.197,4.142V22H217.823z"/>
<polygon fill="#776C61" points="225.493,22 222.857,22 222.857,5.623 225.493,5.623 225.493,14.867 231.494,9.407 234.904,9.407 
	228.649,15.099 235.385,22 231.829,22 225.493,15.265 "/>
</svg>
